<?xml version="1.0" encoding="UTF-8"?><svg id="Capa_2" xmlns="http://www.w3.org/2000/svg" xmlns:xlink="http://www.w3.org/1999/xlink" viewBox="0 0 644.52 392.55"><defs><style>.cls-1{fill:url(#Motivo_nuevo_3);stroke:url(#Motivo_nuevo_3);stroke-miterlimit:10;}.cls-2{fill:none;}.cls-3{fill:#ffffff;}</style><pattern id="Motivo_nuevo_3" x="0" y="0" width="85" height="77.84" patternTransform="translate(-803.38 2628.34)" patternUnits="userSpaceOnUse" viewBox="0 0 85 77.84"><rect class="cls-2" width="85" height="77.84"/><path class="cls-3" d="M20.07,60.43h0c-9.22,0-16.83,7.24-17.22,16.47-.42,9.49,6.94,17.52,16.43,17.93,9.5.42,17.53-6.95,17.94-16.44v-1.07c-.05-1.51-.28-3.01-.71-4.47h3.81c-6.66-6.04-11.15-11.78-20.25-12.43Z"/><path class="cls-3" d="M64.77,60.43h0c-9.36.03-16.98,7.53-17.15,16.88v1.08c.05,1.51.28,3.01.71,4.47h-3.82c6.64,6,11.17,11.75,20.25,12.39,9.6,0,17.39-7.79,17.4-17.39,0-9.61-7.78-17.41-17.4-17.42Z"/><rect class="cls-2" y="58.38" width="85" height="38.92"/><path class="cls-3" d="M20.07,21.51h0c-9.22,0-16.83,7.24-17.22,16.47-.42,9.49,6.94,17.52,16.43,17.93,9.5.42,17.53-6.95,17.94-16.44v-1.07c-.05-1.51-.28-3.01-.71-4.47h3.81c-6.66-6.04-11.15-11.78-20.25-12.43Z"/><path class="cls-3" d="M64.77,21.51h0c-9.36.03-16.98,7.53-17.15,16.88v1.08c.05,1.51.28,3.01.71,4.47h-3.82c6.64,6,11.17,11.75,20.25,12.39,9.6,0,17.39-7.79,17.4-17.39,0-9.61-7.78-17.41-17.4-17.42Z"/><rect class="cls-2" y="19.46" width="85" height="38.92"/><path class="cls-3" d="M20.07-17.4h0c-9.22,0-16.83,7.24-17.22,16.47-.42,9.49,6.94,17.52,16.43,17.93,9.5.42,17.53-6.95,17.94-16.44V-.51c-.05-1.51-.28-3.01-.71-4.47h3.81c-6.66-6.04-11.15-11.78-20.25-12.43Z"/><path class="cls-3" d="M64.77-17.4h0c-9.36.03-16.98,7.53-17.15,16.88V.56c.05,1.51.28,3.01.71,4.47h-3.82c6.64,6,11.17,11.75,20.25,12.39,9.6,0,17.39-7.79,17.4-17.39,0-9.61-7.78-17.41-17.4-17.42Z"/><rect class="cls-2" y="-19.46" width="85" height="38.92"/></pattern></defs><g id="Capa_1-2"><rect class="cls-1" x=".5" y=".5" width="643.52" height="391.55"/></g></svg>
